<mxfile host="app.diagrams.net" modified="2023-05-18T01:40:43.737Z" agent="Mozilla/5.0 (Windows NT 10.0; Win64; x64) AppleWebKit/537.36 (KHTML, like Gecko) Chrome/113.0.0.0 Safari/537.36" version="21.3.2" etag="-4zBp8SIFEES8IVxlK1n" type="github">
  <diagram name="第 1 页" id="BxN0ft_3wYEIdd7kJTNg">
    <mxGraphModel>
      <root>
        <mxCell id="0" />
        <mxCell id="1" parent="0" />
      </root>
    </mxGraphModel>
  </diagram>
</mxfile>
